<svg width="468" height="313" viewBox="0 0 468 313" fill="none" xmlns="http://www.w3.org/2000/svg">
<g filter="url(#filter0_dddd_832_1086)">
<rect x="83" y="19" width="302" height="72" rx="36" fill="white"/>
<path fill-rule="evenodd" clip-rule="evenodd" d="M148.999 50.2433L150.199 51.4433C151.15 52.3767 151.666 53.6433 151.666 54.9767C151.683 56.31 151.166 57.5783 150.233 58.5267C150.221 58.5388 150.21 58.5497 150.199 58.5603C150.194 58.5657 150.188 58.5712 150.182 58.5767L148.999 59.76C148.532 60.2267 148.265 60.86 148.265 61.5283V63.2433C148.265 66.01 146.014 68.2617 143.247 68.2617H141.529C140.862 68.2617 140.229 68.5267 139.762 68.9933L138.562 70.1933C137.578 71.1783 136.294 71.66 135.01 71.66C133.727 71.66 132.443 71.1783 131.459 70.2117L130.242 68.9933C129.775 68.5267 129.141 68.2617 128.475 68.2617H126.757C123.99 68.2617 121.739 66.01 121.739 63.2433V61.5283C121.739 60.86 121.472 60.2267 121.005 59.7433L119.805 58.56C117.854 56.6117 117.837 53.4267 119.788 51.4616L121.005 50.2433C121.472 49.7766 121.739 49.1433 121.739 48.46V46.76C121.739 43.9933 123.99 41.745 126.757 41.745H128.475C129.141 41.745 129.775 41.4766 130.242 41.01L131.442 39.81C133.393 37.845 136.578 37.845 138.545 39.795L139.762 41.01C140.229 41.4766 140.862 41.745 141.529 41.745H143.247C146.014 41.745 148.265 43.9933 148.265 46.76V48.4783C148.265 49.1433 148.532 49.7766 148.999 50.2433ZM130.709 60.7433C131.109 60.7433 131.476 60.5933 131.742 60.31L140.312 51.745C140.879 51.1783 140.879 50.2433 140.312 49.6766C139.745 49.1116 138.828 49.1116 138.262 49.6766L129.692 58.2433C129.125 58.81 129.125 59.7433 129.692 60.31C129.958 60.5933 130.325 60.7433 130.709 60.7433ZM137.828 59.2767C137.828 60.0933 138.478 60.7433 139.295 60.7433C140.095 60.7433 140.746 60.0933 140.746 59.2767C140.746 58.4783 140.095 57.8267 139.295 57.8267C138.478 57.8267 137.828 58.4783 137.828 59.2767ZM130.725 49.26C131.526 49.26 132.176 49.91 132.176 50.71C132.176 51.5283 131.526 52.1767 130.725 52.1767C129.925 52.1767 129.258 51.5283 129.258 50.71C129.258 49.91 129.925 49.26 130.725 49.26Z" fill="#FF5722"/>
<path d="M176.037 60.056H178.567C181.235 60.056 183.466 58.4 183.466 54.858C183.466 51.316 181.258 49.637 178.59 49.637H176.037V60.056ZM178.682 63H172.863V46.693H178.705C183.351 46.693 186.755 49.706 186.755 54.858C186.755 60.01 183.328 63 178.682 63ZM192.336 63H189.277V51.684H192.336V63ZM188.909 47.981C188.909 46.923 189.76 46.072 190.795 46.072C191.853 46.072 192.681 46.923 192.681 47.981C192.681 48.993 191.853 49.844 190.795 49.844C189.76 49.844 188.909 48.993 188.909 47.981ZM194.645 59.849L197.267 59.274C197.336 60.171 198.003 60.999 199.337 60.999C200.349 60.999 200.832 60.47 200.832 59.872C200.832 59.366 200.487 58.952 199.613 58.768L198.118 58.423C195.933 57.94 194.944 56.629 194.944 55.042C194.944 53.018 196.738 51.339 199.176 51.339C202.396 51.339 203.477 53.386 203.615 54.605L201.062 55.18C200.97 54.513 200.487 53.662 199.199 53.662C198.394 53.662 197.75 54.145 197.75 54.789C197.75 55.341 198.164 55.686 198.785 55.801L200.395 56.146C202.626 56.606 203.753 57.963 203.753 59.619C203.753 61.459 202.327 63.345 199.36 63.345C195.956 63.345 194.783 61.137 194.645 59.849ZM211.25 54.168C209.686 54.168 208.375 55.295 208.375 57.342C208.375 59.389 209.709 60.539 211.273 60.539C212.837 60.539 213.619 59.504 213.872 58.63L216.563 59.527C216.057 61.413 214.286 63.345 211.273 63.345C207.938 63.345 205.316 60.815 205.316 57.342C205.316 53.846 207.892 51.339 211.181 51.339C214.263 51.339 216.011 53.248 216.494 55.157L213.757 56.077C213.481 55.134 212.768 54.168 211.25 54.168ZM223.783 60.562C225.278 60.562 226.658 59.481 226.658 57.342C226.658 55.203 225.278 54.122 223.783 54.122C222.288 54.122 220.908 55.203 220.908 57.342C220.908 59.458 222.288 60.562 223.783 60.562ZM223.783 51.339C227.164 51.339 229.717 53.846 229.717 57.342C229.717 60.815 227.164 63.345 223.783 63.345C220.402 63.345 217.849 60.815 217.849 57.342C217.849 53.846 220.402 51.339 223.783 51.339ZM239.493 63C239.447 62.77 239.401 62.241 239.401 61.781C238.78 62.839 237.469 63.299 236.273 63.299C233.536 63.299 231.972 61.298 231.972 58.837V51.684H235.031V58.216C235.031 59.481 235.675 60.493 237.101 60.493C238.458 60.493 239.24 59.573 239.24 58.262V51.684H242.299V60.953C242.299 61.827 242.368 62.609 242.414 63H239.493ZM248.623 56.491V63H245.564V51.684H248.531V53.087C249.221 51.914 250.578 51.385 251.797 51.385C254.603 51.385 255.891 53.386 255.891 55.87V63H252.832V56.399C252.832 55.134 252.211 54.145 250.739 54.145C249.405 54.145 248.623 55.18 248.623 56.491ZM262.767 48.303V51.684H265.044V54.398H262.767V59.136C262.767 60.125 263.227 60.447 264.101 60.447C264.469 60.447 264.883 60.401 265.044 60.355V62.885C264.768 63 264.216 63.161 263.319 63.161C261.111 63.161 259.731 61.85 259.731 59.665V54.398H257.684V51.684H258.259C259.455 51.684 260.007 50.902 260.007 49.89V48.303H262.767ZM269.761 56.054H274.821C274.775 54.927 274.039 53.823 272.291 53.823C270.704 53.823 269.83 55.019 269.761 56.054ZM275.12 58.998L277.673 59.757C277.098 61.712 275.304 63.345 272.521 63.345C269.416 63.345 266.679 61.114 266.679 57.296C266.679 53.685 269.347 51.339 272.245 51.339C275.741 51.339 277.834 53.57 277.834 57.204C277.834 57.641 277.788 58.101 277.788 58.147H269.692C269.761 59.642 271.026 60.723 272.544 60.723C273.97 60.723 274.752 60.01 275.12 58.998ZM291.03 46.348V60.953C291.03 61.712 291.076 62.54 291.122 63H288.201C288.155 62.77 288.086 62.218 288.086 61.689C287.58 62.586 286.43 63.276 284.912 63.276C281.692 63.276 279.392 60.746 279.392 57.319C279.392 54.007 281.623 51.408 284.82 51.408C286.775 51.408 287.695 52.213 288.017 52.811V46.348H291.03ZM282.474 57.319C282.474 59.343 283.67 60.539 285.28 60.539C286.844 60.539 288.063 59.343 288.063 57.296C288.063 55.272 286.844 54.145 285.28 54.145C283.716 54.145 282.474 55.295 282.474 57.319ZM303.458 54.122H305.965C307.552 54.122 308.518 53.202 308.518 51.799C308.518 50.35 307.552 49.453 305.965 49.453H303.458V54.122ZM306.356 56.859H303.435V63H300.261V46.693H306.356C309.576 46.693 311.715 48.832 311.715 51.776C311.715 54.743 309.576 56.859 306.356 56.859ZM320.61 51.638V54.72C320.265 54.651 319.966 54.628 319.69 54.628C318.126 54.628 316.769 55.387 316.769 57.825V63H313.71V51.684H316.677V53.363C317.367 51.868 318.931 51.592 319.897 51.592C320.15 51.592 320.38 51.615 320.61 51.638ZM325.821 63H322.762V51.684H325.821V63ZM322.394 47.981C322.394 46.923 323.245 46.072 324.28 46.072C325.338 46.072 326.166 46.923 326.166 47.981C326.166 48.993 325.338 49.844 324.28 49.844C323.245 49.844 322.394 48.993 322.394 47.981ZM334.179 54.168C332.615 54.168 331.304 55.295 331.304 57.342C331.304 59.389 332.638 60.539 334.202 60.539C335.766 60.539 336.548 59.504 336.801 58.63L339.492 59.527C338.986 61.413 337.215 63.345 334.202 63.345C330.867 63.345 328.245 60.815 328.245 57.342C328.245 53.846 330.821 51.339 334.11 51.339C337.192 51.339 338.94 53.248 339.423 55.157L336.686 56.077C336.41 55.134 335.697 54.168 334.179 54.168ZM343.86 56.054H348.92C348.874 54.927 348.138 53.823 346.39 53.823C344.803 53.823 343.929 55.019 343.86 56.054ZM349.219 58.998L351.772 59.757C351.197 61.712 349.403 63.345 346.62 63.345C343.515 63.345 340.778 61.114 340.778 57.296C340.778 53.685 343.446 51.339 346.344 51.339C349.84 51.339 351.933 53.57 351.933 57.204C351.933 57.641 351.887 58.101 351.887 58.147H343.791C343.86 59.642 345.125 60.723 346.643 60.723C348.069 60.723 348.851 60.01 349.219 58.998Z" fill="#191825"/>
</g>
<defs>
<filter id="filter0_dddd_832_1086" x="0" y="0" width="468" height="313" filterUnits="userSpaceOnUse" color-interpolation-filters="sRGB">
<feFlood flood-opacity="0" result="BackgroundImageFix"/>
<feColorMatrix in="SourceAlpha" type="matrix" values="0 0 0 0 0 0 0 0 0 0 0 0 0 0 0 0 0 0 127 0" result="hardAlpha"/>
<feOffset/>
<feColorMatrix type="matrix" values="0 0 0 0 0 0 0 0 0 0 0 0 0 0 0 0 0 0 0.03 0"/>
<feBlend mode="normal" in2="BackgroundImageFix" result="effect1_dropShadow_832_1086"/>
<feColorMatrix in="SourceAlpha" type="matrix" values="0 0 0 0 0 0 0 0 0 0 0 0 0 0 0 0 0 0 127 0" result="hardAlpha"/>
<feOffset dy="15"/>
<feGaussianBlur stdDeviation="17"/>
<feColorMatrix type="matrix" values="0 0 0 0 0 0 0 0 0 0 0 0 0 0 0 0 0 0 0.03 0"/>
<feBlend mode="normal" in2="effect1_dropShadow_832_1086" result="effect2_dropShadow_832_1086"/>
<feColorMatrix in="SourceAlpha" type="matrix" values="0 0 0 0 0 0 0 0 0 0 0 0 0 0 0 0 0 0 127 0" result="hardAlpha"/>
<feOffset dy="62"/>
<feGaussianBlur stdDeviation="31"/>
<feColorMatrix type="matrix" values="0 0 0 0 0 0 0 0 0 0 0 0 0 0 0 0 0 0 0.02 0"/>
<feBlend mode="normal" in2="effect2_dropShadow_832_1086" result="effect3_dropShadow_832_1086"/>
<feColorMatrix in="SourceAlpha" type="matrix" values="0 0 0 0 0 0 0 0 0 0 0 0 0 0 0 0 0 0 127 0" result="hardAlpha"/>
<feOffset dy="139"/>
<feGaussianBlur stdDeviation="41.5"/>
<feColorMatrix type="matrix" values="0 0 0 0 0 0 0 0 0 0 0 0 0 0 0 0 0 0 0.01 0"/>
<feBlend mode="normal" in2="effect3_dropShadow_832_1086" result="effect4_dropShadow_832_1086"/>
<feBlend mode="normal" in="SourceGraphic" in2="effect4_dropShadow_832_1086" result="shape"/>
</filter>
</defs>
</svg>
